<svg width="35" height="40" viewBox="0 0 35 40" fill="none" xmlns="http://www.w3.org/2000/svg">
<path d="M14.5723 16.5715H20.0918C21.3234 16.5715 22.3242 16.1808 23.0939 15.3999C23.8638 14.619 24.2487 13.581 24.2487 12.2858V10.3429C24.2487 9.27621 23.8445 8.42859 23.0362 7.8C22.5978 7.45904 22.0801 7.21072 21.4831 7.05473C22.2266 6.44269 22.8118 5.63741 23.1636 4.68649C23.7377 3.13451 23.5727 1.51838 22.8694 0.183838C25.2657 0.519543 27.2748 1.31543 28.8963 2.5715C31.1096 4.28568 32.2161 6.59041 32.2161 9.48569V12.3429C32.2161 13.5999 31.8986 14.8 31.2635 15.9429C30.8132 16.7531 30.2323 17.4581 29.5208 18.0577L22.5466 23.0883C22.4796 23.0866 22.4119 23.0856 22.3433 23.0856H14.0615C15.6211 21.2156 15.8425 18.644 14.5723 16.5715Z" fill="#F6543B"/>
<path d="M11.88 16.5715H20.0916C21.3232 16.5715 22.324 16.1808 23.0937 15.3999C23.8634 14.619 24.2485 13.581 24.2485 12.2858V10.3429C24.2485 9.27621 23.8443 8.42859 23.036 7.8C22.5976 7.45904 22.0799 7.21072 21.4829 7.05473C22.2264 6.44269 22.8116 5.63741 23.1634 4.68649C23.7375 3.13451 23.5725 1.51838 22.8692 0.183838C25.2655 0.519543 27.2746 1.31543 28.8961 2.5715C31.1094 4.28568 32.2159 6.59041 32.2159 9.48569V12.3429C32.2159 13.5999 31.8984 14.8 31.2633 15.9429C30.813 16.7531 30.2321 17.4581 29.5206 18.0577L22.5464 23.0883C22.4794 23.0866 22.4117 23.0856 22.3431 23.0856H11.7681C8.9311 23.1767 8.6355 16.6557 11.88 16.5715Z" fill="#FAC900"/>
<path d="M0 6.87216V0H20.0919C21.0694 0 21.9951 0.0612833 22.8695 0.18385C25.4596 0.347325 24.876 7.49916 21.4832 7.05474C20.9796 6.92294 20.4195 6.85672 19.8032 6.8572L7.9682 6.86612L4.40748 11.3758L0 6.87216Z" fill="#F6543B"/>
<path d="M5.60034 40C3.94574 40 2.59801 39.5045 1.5589 38.5143C0.519795 37.5239 0 36.2285 0 34.6286V22.6752C2.2347 24.9344 5.82405 25.1404 7.9674 23.0857V33.1428H19.3627C17.8067 35.0768 17.6676 37.9282 19.2483 40H5.60034Z" fill="#C75EEB"/>
<path d="M15.915 33.1427H21.4779C23.1716 33.1427 24.4802 32.8094 25.404 32.1428C26.3277 31.4761 26.7896 30.5332 26.7896 29.3142V26.8C26.7896 25.6951 26.3852 24.7997 25.5772 24.1142C24.8101 23.4635 23.7999 23.1214 22.5472 23.0883C20.9901 19.385 26.6466 17.4338 28.5794 18.7427V18.7999C30.427 19.4476 31.9185 20.4953 33.0539 21.9428C34.1892 23.3902 34.7571 25.0095 34.7571 26.8V29.7713C34.7571 32.8949 33.6119 35.3809 31.3218 37.2285C29.0317 39.0759 25.9426 39.9999 22.0553 39.9999H16.4422C16.9426 39.2464 17.2699 38.3822 17.3623 37.4797C17.5339 35.8061 16.9504 34.2657 15.915 33.1427Z" fill="#4EBFE9"/>
<path d="M0 22.6752V6.70386C1.51451 8.19853 3.84539 8.80293 6.01688 8.01628C6.77052 7.74329 7.38826 7.40376 7.9674 6.8573C8.00937 6.88978 7.9251 6.83502 7.9674 6.86622V6.8573V16.5716H13.0105C14.2805 18.6441 14.0591 21.2157 12.4995 23.0858H7.9674C5.82405 25.1404 2.2347 24.9344 0 22.6752Z" fill="#61E061"/>
<path fill-rule="evenodd" clip-rule="evenodd" d="M24.4342 15.7402C26.7738 15.7402 30.1997 17.4213 28.5788 18.7428C26.639 20.3242 25.0745 21.9668 22.048 23.0856C19.4515 22.7986 20.1982 20.9418 20.1982 19.504C20.1982 17.4253 22.0947 15.7402 24.4342 15.7402Z" fill="#FAC900"/>
</svg>
